<svg width="375" height="300" viewBox="0 0 375 300" fill="none" xmlns="http://www.w3.org/2000/svg">
<g opacity="1">
<path d="M375 267.9L367.188 267.393C359.375 266.823 343.75 265.81 328.125 268.533C312.5 271.257 296.875 277.843 281.25 279.427C265.625 281.01 250 277.59 234.375 278.793C218.75 279.933 203.125 285.633 187.5 291.017C171.875 296.4 156.25 301.467 140.625 298.49C125 295.577 109.375 284.557 93.75 280.757C78.125 276.957 62.5 280.377 46.875 281.327C31.25 282.277 15.625 280.757 7.8125 280.06L0 279.3L0 0.000152588H7.8125C15.625 0.000152588 31.25 0.000152588 46.875 0.000152588C62.5 0.000152588 78.125 0.000152588 93.75 0.000152588C109.375 0.000152588 125 0.000152588 140.625 0.000152588C156.25 0.000152588 171.875 0.000152588 187.5 0.000152588C203.125 0.000152588 218.75 0.000152588 234.375 0.000152588C250 0.000152588 265.625 0.000152588 281.25 0.000152588C296.875 0.000152588 312.5 0.000152588 328.125 0.000152588C343.75 0.000152588 359.375 0.000152588 367.188 0.000152588H375V267.9Z" fill="#C4B5FD"/>
<path d="M375 257.133L367.188 249.343C359.375 241.49 343.75 225.91 328.125 219.577C312.5 213.243 296.875 216.157 281.25 224.517C265.625 232.877 250 246.557 234.375 252.573C218.75 258.59 203.125 256.943 187.5 249.66C171.875 242.377 156.25 229.457 140.625 226.923C125 224.39 109.375 232.243 93.75 229.583C78.125 226.923 62.5 213.877 46.875 215.84C31.25 217.867 15.625 234.967 7.8125 243.517L0 252.067L0 -3.05176e-05H7.8125C15.625 -3.05176e-05 31.25 -3.05176e-05 46.875 -3.05176e-05C62.5 -3.05176e-05 78.125 -3.05176e-05 93.75 -3.05176e-05C109.375 -3.05176e-05 125 -3.05176e-05 140.625 -3.05176e-05C156.25 -3.05176e-05 171.875 -3.05176e-05 187.5 -3.05176e-05C203.125 -3.05176e-05 218.75 -3.05176e-05 234.375 -3.05176e-05C250 -3.05176e-05 265.625 -3.05176e-05 281.25 -3.05176e-05C296.875 -3.05176e-05 312.5 -3.05176e-05 328.125 -3.05176e-05C343.75 -3.05176e-05 359.375 -3.05176e-05 367.188 -3.05176e-05H375V257.133Z" fill="#A999EB"/>
<path d="M375 203.3L367.188 201.843C359.375 200.323 343.75 197.41 328.125 198.423C312.5 199.5 296.875 204.567 281.25 203.617C265.625 202.667 250 195.7 234.375 191.393C218.75 187.023 203.125 185.377 187.5 187.467C171.875 189.557 156.25 195.51 140.625 191.773C125 188.1 109.375 174.8 93.75 173.66C78.125 172.457 62.5 183.477 46.875 190C31.25 196.523 15.625 198.677 7.8125 199.69L0 200.767L0 -1.52588e-05H7.8125C15.625 -1.52588e-05 31.25 -1.52588e-05 46.875 -1.52588e-05C62.5 -1.52588e-05 78.125 -1.52588e-05 93.75 -1.52588e-05C109.375 -1.52588e-05 125 -1.52588e-05 140.625 -1.52588e-05C156.25 -1.52588e-05 171.875 -1.52588e-05 187.5 -1.52588e-05C203.125 -1.52588e-05 218.75 -1.52588e-05 234.375 -1.52588e-05C250 -1.52588e-05 265.625 -1.52588e-05 281.25 -1.52588e-05C296.875 -1.52588e-05 312.5 -1.52588e-05 328.125 -1.52588e-05C343.75 -1.52588e-05 359.375 -1.52588e-05 367.188 -1.52588e-05H375V203.3Z" fill="#8F7DD9"/>
<path d="M375 146.3L367.188 143.007C359.375 139.777 343.75 133.19 328.125 131.86C312.5 130.467 296.875 134.267 281.25 136.04C265.625 137.877 250 137.623 234.375 142.183C218.75 146.743 203.125 155.99 187.5 159.41C171.875 162.767 156.25 160.233 140.625 160.55C125 160.867 109.375 164.033 93.75 157.827C78.125 151.557 62.5 135.977 46.875 128.883C31.25 121.79 15.625 123.31 7.8125 124.007L0 124.767L0 0.000152588H7.8125C15.625 0.000152588 31.25 0.000152588 46.875 0.000152588C62.5 0.000152588 78.125 0.000152588 93.75 0.000152588C109.375 0.000152588 125 0.000152588 140.625 0.000152588C156.25 0.000152588 171.875 0.000152588 187.5 0.000152588C203.125 0.000152588 218.75 0.000152588 234.375 0.000152588C250 0.000152588 265.625 0.000152588 281.25 0.000152588C296.875 0.000152588 312.5 0.000152588 328.125 0.000152588C343.75 0.000152588 359.375 0.000152588 367.188 0.000152588H375V146.3Z" fill="#7363C7"/>
<path d="M375 82.3333L367.188 87.9067C359.375 93.5433 343.75 104.69 328.125 105.767C312.5 106.843 296.875 97.7233 281.25 96.7733C265.625 95.8233 250 103.043 234.375 102.283C218.75 101.523 203.125 92.91 187.5 94.5567C171.875 96.2667 156.25 108.3 140.625 107.983C125 107.667 109.375 95 93.75 92.0233C78.125 89.11 62.5 95.8233 46.875 101.84C31.25 107.857 15.625 113.177 7.8125 115.773L0 118.433L0 -7.62939e-06H7.8125C15.625 -7.62939e-06 31.25 -7.62939e-06 46.875 -7.62939e-06C62.5 -7.62939e-06 78.125 -7.62939e-06 93.75 -7.62939e-06C109.375 -7.62939e-06 125 -7.62939e-06 140.625 -7.62939e-06C156.25 -7.62939e-06 171.875 -7.62939e-06 187.5 -7.62939e-06C203.125 -7.62939e-06 218.75 -7.62939e-06 234.375 -7.62939e-06C250 -7.62939e-06 265.625 -7.62939e-06 281.25 -7.62939e-06C296.875 -7.62939e-06 312.5 -7.62939e-06 328.125 -7.62939e-06C343.75 -7.62939e-06 359.375 -7.62939e-06 367.188 -7.62939e-06H375V82.3333Z" fill="#5749B5"/>
<path d="M375 60.1667L367.188 57.5066C359.375 54.91 343.75 49.59 328.125 51.7433C312.5 53.8333 296.875 63.3333 281.25 64.2833C265.625 65.2333 250 57.6333 234.375 55.1C218.75 52.5667 203.125 55.1 187.5 54.15C171.875 53.2 156.25 48.7667 140.625 49.4C125 50.0333 109.375 55.7333 93.75 56.24C78.125 56.81 62.5 52.1233 46.875 52.1233C31.25 52.1233 15.625 56.81 7.8125 59.09L0 61.4333L0 3.05176e-05H7.8125C15.625 3.05176e-05 31.25 3.05176e-05 46.875 3.05176e-05C62.5 3.05176e-05 78.125 3.05176e-05 93.75 3.05176e-05C109.375 3.05176e-05 125 3.05176e-05 140.625 3.05176e-05C156.25 3.05176e-05 171.875 3.05176e-05 187.5 3.05176e-05C203.125 3.05176e-05 218.75 3.05176e-05 234.375 3.05176e-05C250 3.05176e-05 265.625 3.05176e-05 281.25 3.05176e-05C296.875 3.05176e-05 312.5 3.05176e-05 328.125 3.05176e-05C343.75 3.05176e-05 359.375 3.05176e-05 367.188 3.05176e-05H375V60.1667Z" fill="#3730A3"/>
</g>
</svg>
